<svg width="82" height="53" viewBox="0 0 82 53" fill="none" xmlns="http://www.w3.org/2000/svg">
<path d="M1.55078 12.3281C3.73828 12.4062 6.01693 12.4453 8.38672 12.4453C9.50651 12.4453 10.5742 12.4193 11.5898 12.3672C12.6055 12.3151 13.1263 12.2891 13.1523 12.2891C13.8555 12.2891 14.5 12.3086 15.0859 12.3477C15.6849 12.3737 16.3555 12.4388 17.0977 12.543C17.8529 12.6471 18.5234 12.7904 19.1094 12.9727C19.6953 13.1549 20.2812 13.4089 20.8672 13.7344C21.4661 14.0599 21.9609 14.444 22.3516 14.8867C22.7552 15.3294 23.0807 15.8763 23.3281 16.5273C23.5755 17.1784 23.6992 17.9076 23.6992 18.7148C23.6992 21.0977 22.2734 22.888 19.4219 24.0859V24.2422C21.5573 24.6328 23.3411 25.5182 24.7734 26.8984C26.2188 28.2786 26.9414 30.043 26.9414 32.1914C26.9414 33.3372 26.7331 34.3724 26.3164 35.2969C25.9128 36.2083 25.3919 36.9635 24.7539 37.5625C24.1159 38.1615 23.3151 38.6823 22.3516 39.125C21.388 39.5677 20.4505 39.9062 19.5391 40.1406C18.6276 40.375 17.5794 40.5638 16.3945 40.707C15.2227 40.8372 14.2201 40.9219 13.3867 40.9609C12.5534 40.987 11.6224 41 10.5938 41C7.0651 41 4.03776 41.0391 1.51172 41.1172C1.45964 40.9609 1.43359 40.8307 1.43359 40.7266C1.43359 40.6354 1.45964 40.4596 1.51172 40.1992C1.90234 40.1602 2.21484 40.1276 2.44922 40.1016C2.68359 40.0755 3.0026 40.0299 3.40625 39.9648C3.82292 39.8997 4.15495 39.8281 4.40234 39.75C4.66276 39.6589 4.92969 39.5482 5.20312 39.418C5.47656 39.2878 5.67839 39.1315 5.80859 38.9492C5.95182 38.7669 6.02344 38.5586 6.02344 38.3242C6.17969 34.2487 6.25781 30.1406 6.25781 26C6.25781 21.7812 6.19271 18.1419 6.0625 15.082C6.04948 14.7435 5.89974 14.457 5.61328 14.2227C5.33984 13.9883 4.92318 13.806 4.36328 13.6758C3.80339 13.5456 3.35417 13.4609 3.01562 13.4219C2.67708 13.3698 2.1888 13.3112 1.55078 13.2461C1.4987 13.0117 1.47266 12.849 1.47266 12.7578C1.47266 12.6797 1.4987 12.5365 1.55078 12.3281ZM10.3789 26V27.4453L10.5938 39.6719C11.4661 39.6719 12.2409 39.6589 12.918 39.6328C13.5951 39.5938 14.3372 39.5156 15.1445 39.3984C15.9518 39.2682 16.6549 39.099 17.2539 38.8906C17.8529 38.6823 18.4518 38.3958 19.0508 38.0312C19.6497 37.6536 20.138 37.2109 20.5156 36.7031C20.8932 36.1953 21.1992 35.5703 21.4336 34.8281C21.668 34.0729 21.7852 33.2266 21.7852 32.2891C21.7852 31.3776 21.6354 30.5638 21.3359 29.8477C21.0365 29.1185 20.6133 28.513 20.0664 28.0312C19.5326 27.5365 18.875 27.1263 18.0938 26.8008C17.3255 26.4753 16.4857 26.2409 15.5742 26.0977C14.6758 25.9544 13.6927 25.8828 12.625 25.8828C11.8828 25.8828 11.1341 25.9219 10.3789 26ZM10.6328 13.6758L10.3789 24.8086C15.6914 24.8086 18.3477 22.7773 18.3477 18.7148C18.3477 16.944 17.7943 15.6419 16.6875 14.8086C15.5938 13.9753 14.1354 13.5586 12.3125 13.5586C11.9089 13.5586 11.349 13.5977 10.6328 13.6758Z" fill="white"/>
<path opacity="0.5" d="M32 18.6883C32 18.307 32.1317 17.9414 32.3661 17.6718C32.6005 17.4023 32.9185 17.2508 33.25 17.2508H45.75C46.0815 17.2508 46.3995 17.4023 46.6339 17.6718C46.8683 17.9414 47 18.307 47 18.6883V37.3752C47 39.6627 46.2098 41.8564 44.8033 43.4738C43.3968 45.0913 41.4891 46 39.5 46C37.5109 46 35.6032 45.0913 34.1967 43.4738C32.7902 41.8564 32 39.6627 32 37.3752V18.6883Z" fill="white"/>
<path d="M34.5 17.2508H44.5V2.87626C44.5002 2.38615 44.3914 1.90413 44.1841 1.47596C43.9767 1.0478 43.6775 0.687709 43.3151 0.4299C42.9526 0.17209 42.5389 0.0251184 42.1131 0.00294437C41.6874 -0.0192296 41.2637 0.0841302 40.8825 0.303207L35.8825 3.17812C35.4669 3.41693 35.1174 3.78419 34.8732 4.23868C34.629 4.69317 34.4998 5.21692 34.5 5.75117V17.2508ZM54.5 15.8134C54.5 11.6198 55.9487 7.59791 58.5273 4.63258C61.1059 1.66725 64.6033 0.00134045 68.25 0.00134045C71.8967 0.00134045 75.3941 1.66725 77.9727 4.63258C80.5513 7.59791 82 11.6198 82 15.8134C82 20.007 80.5513 24.0289 77.9727 26.9942C75.3941 29.9595 71.8967 31.6254 68.25 31.6254C64.6033 31.6254 61.1059 29.9595 58.5273 26.9942C55.9487 24.0289 54.5 20.007 54.5 15.8134Z" fill="#D39371"/>
<path opacity="0.5" d="M66.375 31.4817V41.6876H60.75C60.2527 41.6876 59.7758 41.9148 59.4242 42.3192C59.0725 42.7235 58.875 43.272 58.875 43.8438C58.875 44.4157 59.0725 44.9641 59.4242 45.3685C59.7758 45.7729 60.2527 46 60.75 46H75.75C76.2473 46 76.7242 45.7729 77.0758 45.3685C77.4275 44.9641 77.625 44.4157 77.625 43.8438C77.625 43.272 77.4275 42.7235 77.0758 42.3192C76.7242 41.9148 76.2473 41.6876 75.75 41.6876H70.125V31.4817C68.8808 31.6772 67.6192 31.6772 66.375 31.4817Z" fill="white"/>
</svg>
